<svg xmlns="http://www.w3.org/2000/svg" fill="none" viewBox="0 0 25 25">
    <g stroke="currentColor" stroke-width="1.5">
        <path stroke-linecap="round" stroke-linejoin="round" stroke-width="1.5625050000000003"
              d="M22.65625 3.90625H2.34375c-.86294792 0-1.5625.69955208-1.5625 1.5625v17.1875c0 .86291667.69955208 1.5625 1.5625 1.5625h20.3125c.86291667 0 1.5625-.69958333 1.5625-1.5625V5.46875c0-.86294792-.69958333-1.5625-1.5625-1.5625ZM.78125 10.15625h23.4375M7.03125 6.25V.78125M17.96875 6.25V.78125"/>
        <path stroke-width="1.5625050000000003"
              d="M5.859375 14.84375c-.21573958 0-.390625-.17489583-.390625-.390625s.17488542-.390625.390625-.390625M5.859375 14.84375c.21573958 0 .390625-.17489583.390625-.390625s-.17488542-.390625-.390625-.390625M5.859375 20.3125c-.21573958 0-.390625-.17489583-.390625-.390625s.17488542-.390625.390625-.390625M5.859375 20.3125c.21573958 0 .390625-.17489583.390625-.390625s-.17488542-.390625-.390625-.390625M12.5 14.84375c-.21572917 0-.390625-.17489583-.390625-.390625s.17489583-.390625.390625-.390625M12.5 14.84375c.21572917 0 .390625-.17489583.390625-.390625S12.71572917 14.0625 12.5 14.0625M12.5 20.3125c-.21572917 0-.390625-.17489583-.390625-.390625s.17489583-.390625.390625-.390625M12.5 20.3125c.21572917 0 .390625-.17489583.390625-.390625s-.17489583-.390625-.390625-.390625M19.140625 14.84375c-.21572917 0-.390625-.17489583-.390625-.390625s.17489583-.390625.390625-.390625M19.140625 14.84375c.21572917 0 .390625-.17489583.390625-.390625s-.17489583-.390625-.390625-.390625"/>
        <g>
            <path stroke-width="1.5625050000000003"
                  d="M19.140625 20.3125c-.21572917 0-.390625-.17489583-.390625-.390625s.17489583-.390625.390625-.390625M19.140625 20.3125c.21572917 0 .390625-.17489583.390625-.390625s-.17489583-.390625-.390625-.390625"/>
        </g>
    </g>
</svg>